<svg width="52" height="40" viewBox="0 0 52 40" fill="none" xmlns="http://www.w3.org/2000/svg">
<g clip-path="url(#clip0_1356_21637)">
<path d="M50.8465 6.23889C50.5483 5.03301 49.9666 3.93365 49.1594 3.05028C48.3521 2.16692 47.3474 1.53036 46.2454 1.204C42.2109 0 25.9734 0 25.9734 0C25.9734 0 9.73515 0.0364443 5.70065 1.24044C4.59861 1.56682 3.59393 2.20341 2.78667 3.08682C1.97941 3.97023 1.39773 5.06964 1.09955 6.27556C-0.120788 14.1196 -0.59418 26.072 1.13306 33.6022C1.43127 34.8081 2.01296 35.9075 2.82022 36.7908C3.62748 37.6742 4.63214 38.3108 5.73416 38.6371C9.76866 39.8411 26.0066 39.8411 26.0066 39.8411C26.0066 39.8411 42.2442 39.8411 46.2785 38.6371C47.3806 38.3108 48.3853 37.6742 49.1926 36.7909C49.9999 35.9075 50.5816 34.8081 50.8798 33.6022C52.167 25.7471 52.5636 13.8022 50.8465 6.23911V6.23889Z" fill="#FF0000"/>
<path d="M20.8057 28.4575L34.2759 19.9201L20.8057 11.3828V28.4575Z" fill="#5F707A"/>
</g>
<defs>
<clipPath id="clip0_1356_21637">
<rect width="52" height="40" fill="white"/>
</clipPath>
</defs>
</svg>
